<?xml version="1.0" encoding="UTF-8"?><svg id="Ebene_1" xmlns="http://www.w3.org/2000/svg" viewBox="0 0 570.22 429.25"><defs><style>.cls-1{letter-spacing:0em;}.cls-2{letter-spacing:0em;}.cls-3,.cls-4{font-family:NeueRegrade-Regular, 'Neue Regrade';font-variation-settings:'wght' 400, 'ital' 0;}.cls-5{letter-spacing:.01em;}.cls-6{letter-spacing:0em;}.cls-7{opacity:.1;}.cls-7,.cls-8{fill:#e94d3c;}.cls-9{letter-spacing:-.02em;}.cls-8,.cls-4,.cls-10,.cls-11,.cls-12{font-size:12px;}.cls-8,.cls-13,.cls-10,.cls-12{font-family:NeueRegrade-Semibold, 'Neue Regrade';font-variation-settings:'wght' 600, 'ital' 0;font-weight:600;}.cls-4,.cls-10,.cls-11{fill:#e8e1d3;}.cls-14{letter-spacing:0em;}.cls-15{letter-spacing:.02em;}.cls-16{letter-spacing:0em;}.cls-17{letter-spacing:-.01em;}.cls-18{letter-spacing:0em;}.cls-19{stroke:#2b3d4f;stroke-miterlimit:10;stroke-width:10px;}.cls-19,.cls-20{fill:none;}.cls-21{letter-spacing:0em;}.cls-22{letter-spacing:0em;}.cls-23{letter-spacing:0em;}.cls-24,.cls-20{opacity:.5;}.cls-24,.cls-25{fill:#2b3d4f;}.cls-26{letter-spacing:0em;}.cls-27{letter-spacing:0em;}.cls-28{letter-spacing:-.03em;}.cls-29{letter-spacing:-.03em;}.cls-30{letter-spacing:-.03em;}.cls-31{letter-spacing:-.01em;}.cls-32{letter-spacing:0em;}.cls-33{letter-spacing:0em;}.cls-34{letter-spacing:0em;}.cls-35{letter-spacing:0em;}.cls-36{letter-spacing:0em;}.cls-37{letter-spacing:-.02em;}.cls-12{fill:#043043;}.cls-38{letter-spacing:.01em;}.cls-39{letter-spacing:-.01em;}.cls-40{letter-spacing:0em;}.cls-41{letter-spacing:-.01em;}.cls-42{letter-spacing:-.01em;}.cls-43{letter-spacing:-.02em;}.cls-44{letter-spacing:-.02em;}.cls-45{letter-spacing:0em;}</style></defs><rect class="cls-7" x="20" y="20" width="530" height="280.08" rx="25" ry="25" transform="translate(570 320.08) rotate(180)"/><g class="cls-20"><path class="cls-25" d="m235.49,179.73c13.23,0,24,10.77,24,24v55.64c0,13.23-10.77,24-24,24H60.49c-13.23,0-24-10.77-24-24v-55.64c0-13.23,10.77-24,24-24h175m0-1H60.49c-13.81,0-25,11.19-25,25v55.64c0,13.81,11.19,25,25,25h175c13.81,0,25-11.19,25-25v-55.64c0-13.81-11.19-25-25-25h0Z"/></g><g class="cls-20"><path class="cls-25" d="m510.49,67.76c13.23,0,24,10.77,24,24v49.47c0,13.23-10.77,24-24,24H60.49c-13.23,0-24-10.77-24-24v-49.47c0-13.23,10.77-24,24-24h450m0-1H60.49c-13.81,0-25,11.19-25,25v49.47c0,13.81,11.19,25,25,25h450c13.81,0,25-11.19,25-25v-49.47c0-13.81-11.19-25-25-25h0Z"/></g><rect class="cls-25" x="351.9" y="209.16" width="150" height="50" rx="25" ry="25"/><text class="cls-11" transform="translate(392.67 230.32)"><tspan class="cls-13"><tspan class="cls-14" x="0" y="0">s</tspan><tspan x="5.66" y="0">ur</tspan><tspan class="cls-17" x="17.62" y="0">g</tspan><tspan class="cls-18" x="24.54" y="0">e model</tspan></tspan><tspan class="cls-3"><tspan x="-23.84" y="14.4">(di</tspan><tspan class="cls-1" x="-11.93" y="14.4">s</tspan><tspan class="cls-26" x="-6.63" y="14.4">t</tspan><tspan class="cls-18" x="-3.2" y="14.4">irbu</tspan><tspan class="cls-26" x="16.42" y="14.4">t</tspan><tspan class="cls-18" x="19.85" y="14.4">ion / </tspan><tspan class="cls-22" x="46.37" y="14.4">w</tspan><tspan class="cls-9" x="55.92" y="14.4">r</tspan><tspan x="59.73" y="14.4">app</tspan><tspan class="cls-27" x="79.37" y="14.4">e</tspan><tspan class="cls-28" x="85.66" y="14.4">r</tspan><tspan x="89.3" y="14.4">)</tspan></tspan></text><rect class="cls-24" x="47.99" y="103.73" width="150" height="50" rx="25" ry="25"/><text class="cls-10" transform="translate(106.93 124.89)"><tspan class="cls-34" x="0" y="0">L</tspan><tspan x="6.28" y="0">ocal </tspan><tspan x="-22.13" y="14.4">Imp</tspan><tspan class="cls-6" x="-.64" y="14.4">ac</tspan><tspan class="cls-40" x="12.5" y="14.4">t Model</tspan></text><rect class="cls-25" x="72.99" y="209.16" width="150" height="50" rx="25" ry="25"/><text class="cls-11" transform="translate(92.84 230.32)"><tspan class="cls-13"><tspan x="0" y="0">co</tspan><tspan class="cls-36" x="12.89" y="0">as</tspan><tspan class="cls-40" x="25.68" y="0">tal plain model </tspan></tspan><tspan class="cls-3"><tspan x="3.79" y="14.4">(Hypsom</tspan><tspan class="cls-41" x="49.85" y="14.4">e</tspan><tspan class="cls-38" x="56.11" y="14.4">tr</tspan><tspan class="cls-18" x="63.81" y="14.4">icP</tspan><tspan class="cls-28" x="79.35" y="14.4">r</tspan><tspan class="cls-6" x="82.98" y="14.4">o</tspan><tspan class="cls-26" x="89.1" y="14.4">f</tspan><tspan class="cls-21" x="92.51" y="14.4">i</tspan><tspan x="94.89" y="14.4">le)</tspan></tspan></text><rect class="cls-25" x="210.49" y="103.73" width="150" height="50" rx="25" ry="25"/><text class="cls-10" transform="translate(269.43 124.89)"><tspan class="cls-34" x="0" y="0">L</tspan><tspan x="6.28" y="0">ocal </tspan><tspan x="-22.13" y="14.4">Imp</tspan><tspan class="cls-6" x="-.64" y="14.4">ac</tspan><tspan class="cls-40" x="12.5" y="14.4">t Model</tspan></text><rect class="cls-24" x="372.99" y="103.73" width="150" height="50" rx="25" ry="25"/><text class="cls-10" transform="translate(431.93 124.89)"><tspan class="cls-34" x="0" y="0">L</tspan><tspan x="6.28" y="0">ocal </tspan><tspan x="-22.13" y="14.4">Imp</tspan><tspan class="cls-6" x="-.64" y="14.4">ac</tspan><tspan class="cls-40" x="12.5" y="14.4">t Model</tspan></text><g class="cls-20"><text class="cls-12" transform="translate(399.7 197.23)"><tspan x="0" y="0">scen</tspan><tspan class="cls-31" x="25.67" y="0">a</tspan><tspan class="cls-5" x="32.53" y="0">r</tspan><tspan x="37.63" y="0">io</tspan></text></g><g class="cls-20"><text class="cls-12" transform="translate(123.06 197.48)"><tspan class="cls-28" x="0" y="0">e</tspan><tspan x="6.17" y="0">xpo</tspan><tspan class="cls-14" x="25.93" y="0">s</tspan><tspan x="31.6" y="0">u</tspan><tspan class="cls-44" x="38.6" y="0">r</tspan><tspan class="cls-33" x="43.28" y="0">e</tspan></text></g><g class="cls-20"><path class="cls-25" d="m510.49,179.73c13.23,0,24,10.77,24,24v55.64c0,13.23-10.77,24-24,24h-175c-13.23,0-24-10.77-24-24v-55.64c0-13.23,10.77-24,24-24h175m0-1h-175c-13.81,0-25,11.19-25,25v55.64c0,13.81,11.19,25,25,25h175c13.81,0,25-11.19,25-25v-55.64c0-13.81-11.19-25-25-25h0Z"/></g><g class="cls-20"><text class="cls-12" transform="translate(216.02 87.92)"><tspan x="0" y="0">Composed Imp</tspan><tspan class="cls-6" x="84.06" y="0">ac</tspan><tspan class="cls-40" x="97.2" y="0">t Model</tspan></text></g><line class="cls-19" x1="240.93" y1="234.16" x2="333.96" y2="234.16"/><polygon class="cls-25" points="244.57 246.63 222.99 234.16 244.57 221.7 244.57 246.63"/><polygon class="cls-25" points="330.31 246.63 351.9 234.16 330.31 221.7 330.31 246.63"/><line class="cls-19" x1="287.44" y1="153.73" x2="287.44" y2="234.16"/><path class="cls-25" d="m278.04,234.16c0,5.19,4.21,9.4,9.4,9.4s9.4-4.21,9.4-9.4-4.21-9.4-9.4-9.4-9.4,4.21-9.4,9.4Z"/><rect class="cls-25" x="72.99" y="334.37" width="150" height="50" rx="25" ry="25"/><text class="cls-4" transform="translate(101 355.53)"><tspan x="0" y="0">floodplain</tspan><tspan class="cls-29" x="48.92" y="0">s</tspan><tspan x="53.87" y="0">, </tspan><tspan class="cls-1" x="59.77" y="0">a</tspan><tspan x="66.18" y="0">ss</tspan><tspan class="cls-41" x="76.76" y="0">e</tspan><tspan class="cls-35" x="83.01" y="0">t</tspan><tspan class="cls-29" x="86.46" y="0">s</tspan><tspan x="91.4" y="0">,</tspan><tspan x="12.23" y="14.4">popul</tspan><tspan class="cls-43" x="40.61" y="14.4">a</tspan><tspan class="cls-26" x="46.82" y="14.4">t</tspan><tspan class="cls-18" x="50.25" y="14.4">ion, ... </tspan></text><rect class="cls-25" x="351.9" y="334.37" width="150" height="50" rx="25" ry="25"/><text class="cls-4" transform="translate(389.46 355.53)"><tspan x="0" y="0">SLR scen</tspan><tspan class="cls-16" x="48.28" y="0">a</tspan><tspan class="cls-38" x="54.62" y="0">r</tspan><tspan class="cls-18" x="58.8" y="0">io</tspan><tspan class="cls-29" x="67.34" y="0">s</tspan><tspan x="72.29" y="0">,</tspan><tspan x="17.93" y="14.4">S</tspan><tspan class="cls-2" x="24.94" y="14.4">S</tspan><tspan class="cls-23" x="31.9" y="14.4">P</tspan><tspan class="cls-30" x="39" y="14.4">s</tspan><tspan x="43.94" y="14.4">, ...</tspan></text><g class="cls-20"><text class="cls-12" transform="translate(259.11 328.5)"><tspan x="0" y="0">input d</tspan><tspan class="cls-37" x="38.68" y="0">a</tspan><tspan x="45.38" y="0">t</tspan><tspan class="cls-45" x="49.75" y="0">a</tspan></text></g><line class="cls-19" x1="426.9" y1="259.16" x2="426.9" y2="316.44"/><polygon class="cls-25" points="414.43 312.79 426.9 334.37 439.36 312.79 414.43 312.79"/><line class="cls-19" x1="147.99" y1="259.16" x2="147.99" y2="316.44"/><polygon class="cls-25" points="135.52 312.79 147.99 334.37 160.45 312.79 135.52 312.79"/><g class="cls-20"><path class="cls-25" d="m512.44,310.37c13.23,0,24,10.77,24,24v49.47c0,13.23-10.77,24-24,24H62.44c-13.23,0-24-10.77-24-24v-49.47c0-13.23,10.77-24,24-24h450m0-1H62.44c-13.81,0-25,11.19-25,25v49.47c0,13.81,11.19,25,25,25h450c13.81,0,25-11.19,25-25v-49.47c0-13.81-11.19-25-25-25h0Z"/></g><text class="cls-8" transform="translate(255.07 48.01)"><tspan x="0" y="0">jdi</tspan><tspan class="cls-39" x="13.03" y="0">v</tspan><tspan class="cls-45" x="18.97" y="0">a</tspan><tspan x="25.88" y="0"> </tspan><tspan class="cls-15" x="29.14" y="0">l</tspan><tspan x="32.04" y="0">i</tspan><tspan class="cls-42" x="34.98" y="0">b</tspan><tspan class="cls-32" x="41.93" y="0">r</tspan><tspan class="cls-31" x="46.75" y="0">a</tspan><tspan x="53.62" y="0">ry</tspan></text></svg>