<?xml version="1.0" encoding="UTF-8"?><svg id="Ebene_1" xmlns="http://www.w3.org/2000/svg" viewBox="0 0 500 500"><defs><style>.cls-1{fill:#fff;}</style></defs><path class="cls-1" d="m250.06,17.78c-64.59,0-117.03,52.5-117.03,117.03s52.44,117.03,117.03,117.03,117.03-52.5,117.03-117.03-52.51-117.03-117.03-117.03Zm-74.9,117.03c0,41.31,33.59,74.84,74.9,74.84v12.65c-48.27,0-87.55-39.22-87.55-87.49h12.65Zm74.9-28.47c15.69,0,28.47,12.78,28.47,28.47h-12.65c0-8.73-7.15-15.81-15.81-15.81v-12.65Zm0,44.28v12.65c-15.75,0-28.47-12.78-28.47-28.47h12.65c0,8.73,7.08,15.81,15.81,15.81Zm-45.36-15.81c0,24.99,20.31,45.36,45.36,45.36v12.65c-32.01,0-58.01-26.06-58.01-58.01h12.65Zm90.65,0c0-24.99-20.31-45.36-45.29-45.36v-12.65c31.95,0,57.95,26.06,57.95,58.01h-12.65Zm-45.29-74.84v-12.65c48.2,0,87.49,39.22,87.49,87.49h-12.65c0-41.24-33.59-74.84-74.84-74.84Z"/><path class="cls-1" d="m382.97,248.17c-64.52,0-117.03,52.51-117.03,117.03s52.51,117.03,117.03,117.03,117.03-52.5,117.03-117.03-52.44-117.03-117.03-117.03Zm-83.5,179.34c8.1-6.07,19.61-17.02,37.58-34.41,22.84-22.2,51.3-49.85,67.37-57.19,19.55-9.05,47.32-2.72,82.43,18.66.25,2.53.32,5.12.38,7.65-38.9-12.59-66.68-14.87-84.51-6.64-17.84,8.22-42.32,32.07-63.83,53.2-12.02,11.7-24.29,23.72-31.19,28.47-2.97-3.1-5.69-6.33-8.22-9.74Zm186.23-44.28c-5-.19-9.87-.32-14.36-.51-31.57-1.08-52.44-1.83-65.03,3.99-18.16,8.35-38.59,28.78-56.68,46.81-7.84,7.84-15.37,15.31-21.32,20.37-3.92-2.4-7.72-5-11.26-7.84,7.78-5.88,18.16-16.07,30.62-28.21,19.8-19.36,44.47-43.46,60.35-50.8,10.44-4.81,32.7-7.08,78.82,8.35-.25,2.66-.7,5.25-1.14,7.84Z"/><path class="cls-1" d="m117.03,248.17c-54.4,0-101.21,36.88-113.87,89.76v.06c-2.09,8.86-3.16,18.03-3.16,27.2,0,64.52,52.5,117.03,117.03,117.03,44.22,0,84.13-24.48,104.25-63.83q0-.06.06-.13c0-.06.06-.13.06-.19,8.41-16.51,12.65-34.29,12.65-52.88,0-64.52-52.5-117.03-117.03-117.03Zm59.59,202.75c-.82-.76-1.83-1.33-3.04-1.52-11.39-1.71-21.63-5.44-30.43-11.01-14.99-9.49-22.08-21.76-28.97-33.59-6.96-12.02-13.54-23.41-27.14-29.67-18.41-8.48-41.94-3.86-71.61,13.66-1.14-4.93-1.96-10-2.34-15.18,32.77-20.18,58.64-26.32,76.67-18.03,12.27,5.63,18.79,16.83,26.25,29.79,8.67,14.87,18.41,31.69,39.16,44.85,9.36,5.95,19.8,10.25,31.19,13.03-3.1,2.72-6.33,5.31-9.74,7.65Zm20.18-18.41c-12.9-2.21-24.67-6.52-34.86-12.97-18.09-11.45-26.7-26.25-34.92-40.55-8.29-14.17-16.07-27.58-31.95-34.92-21.13-9.68-48.01-4.87-82.05,14.8.32-5.25.95-10.44,2.02-15.5,35.68-22.01,63.77-28.53,83.57-19.48,13.47,6.26,20.56,18.47,28.78,32.64,9.36,16.07,19.93,34.35,42.32,48.52,10.82,6.83,23.09,11.64,36.31,14.68-2.78,4.49-5.88,8.79-9.24,12.78Z"/></svg>