<?xml version="1.0" encoding="UTF-8"?><svg id="Ebene_1" xmlns="http://www.w3.org/2000/svg" viewBox="0 0 500 500"><defs><style>.cls-1{fill:#fff;}</style></defs><path class="cls-1" d="m117.02,248.16c-54.41,0-101.21,36.91-113.83,89.76,0,.01,0,.02,0,.04,0,.01,0,.03,0,.04-2.11,8.87-3.18,18.01-3.18,27.18,0,64.53,52.49,117.02,117.02,117.02,44.23,0,84.15-24.46,104.26-63.86.01-.02.02-.04.04-.07.04-.07.08-.14.12-.21,8.36-16.48,12.6-34.27,12.6-52.89,0-64.53-52.49-117.02-117.02-117.02Zm79.79,184.3c-12.93-2.2-24.68-6.51-34.86-12.95-18.11-11.46-26.68-26.23-34.96-40.52-8.23-14.19-16-27.61-31.91-34.93-21.12-9.72-48.04-4.87-82.06,14.79.32-5.24.96-10.43,2.04-15.54,35.67-21.94,63.78-28.51,83.57-19.4,13.49,6.21,20.58,18.44,28.79,32.59,9.35,16.12,19.94,34.38,42.34,48.57,10.81,6.84,23.01,11.67,36.26,14.62-2.77,4.53-5.86,8.78-9.21,12.77Zm-20.16,18.45c-.87-.74-1.86-1.33-3.07-1.52-11.35-1.72-21.6-5.43-30.43-11.03-14.95-9.46-22.05-21.72-28.93-33.58-6.97-12.03-13.56-23.4-27.19-29.67-18.4-8.46-41.91-3.89-71.59,13.66-1.15-4.94-1.95-10.01-2.37-15.19,32.81-20.23,58.64-26.36,76.71-18.04,12.27,5.65,18.75,16.83,26.26,29.78,8.62,14.88,18.4,31.75,39.13,44.87,9.35,5.92,19.8,10.27,31.14,13.05-3.08,2.74-6.3,5.31-9.68,7.66Zm-157.44-49.68c26.8-16.38,47.87-21.35,62.54-14.62,9.98,4.59,15.07,13.39,21.53,24.52,7.28,12.56,15.54,26.8,33.11,37.92,7.52,4.75,15.88,8.3,24.91,10.67-13.58,6.34-28.61,9.82-44.27,9.82-44.86,0-83.09-28.51-97.82-68.32Zm192.84,6.78c-13.1-2.53-25.08-7.03-35.52-13.64-19.79-12.52-29.13-28.64-38.17-44.22-8.9-15.35-17.31-29.85-34.44-37.73-21.7-9.98-49.1-5.7-83.43,13.08,15.82-38.75,53.48-64.69,96.53-64.69,57.55,0,104.37,46.82,104.37,104.37,0,15.01-3.25,29.36-9.34,42.83Z"/><path class="cls-1" d="m382.98,248.16c-64.53,0-117.02,52.49-117.02,117.02s52.49,117.02,117.02,117.02,117.02-52.49,117.02-117.02-52.49-117.02-117.02-117.02Zm102.7,135.04c-5.02-.16-9.88-.32-14.42-.48-31.52-1.1-52.34-1.83-64.98,3.99-18.13,8.34-38.59,28.77-56.66,46.79-7.88,7.86-15.37,15.33-21.35,20.38-3.9-2.41-7.67-4.99-11.21-7.88,7.74-5.84,18.16-16.02,30.62-28.21,19.79-19.36,44.43-43.45,60.29-50.75,10.48-4.81,32.67-7.14,78.85,8.33-.26,2.65-.7,5.24-1.15,7.83Zm-102.7-122.39c48.17,0,88.71,32.85,100.68,77.3-34.85-19.3-62.63-23.82-84.56-13.72-18.01,8.28-46.11,35.55-70.89,59.6-12.38,12.01-27.03,26.22-35.7,33-8.79-15.29-13.9-32.95-13.9-51.81,0-57.55,46.82-104.37,104.37-104.37Zm-83.52,166.69c8.06-6.07,19.63-17.04,37.56-34.43,22.87-22.19,51.34-49.81,67.37-57.19,19.57-9,47.3-2.67,82.42,18.7.26,2.52.32,5.09.39,7.65-38.44-12.44-66.94-14.77-84.51-6.69-17.86,8.22-42.29,32.11-63.85,53.2-11.98,11.72-24.3,23.76-31.18,28.48-2.94-3.07-5.65-6.33-8.2-9.73Zm83.52,42.05c-15.27,0-29.74-3.38-42.82-9.29,5.47-4.94,11.59-11,18.4-17.79,16.45-16.42,36.93-36.86,53.01-44.26,9.91-4.56,30.6-3.83,59.26-2.84,3.8.13,7.81.27,11.94.4-13.11,42.67-52.87,73.78-99.77,73.78Z"/><path class="cls-1" d="m367.04,134.82c0-64.53-52.49-117.02-117.02-117.02s-117.02,52.49-117.02,117.02,52.49,117.02,117.02,117.02,117.02-52.49,117.02-117.02Zm-117.02,104.37c-57.55,0-104.37-46.82-104.37-104.37S192.48,30.45,250.02,30.45s104.37,46.82,104.37,104.37-46.82,104.37-104.37,104.37Z"/><path class="cls-1" d="m175.18,134.82h-12.65c0,48.25,39.25,87.5,87.5,87.5v-12.65c-41.27,0-74.85-33.58-74.85-74.85Z"/><path class="cls-1" d="m204.7,134.82h-12.65c0,31.97,26.01,57.98,57.98,57.98v-12.65c-24.99,0-45.33-20.34-45.33-45.33Z"/><path class="cls-1" d="m234.21,134.82h-12.65c0,15.7,12.77,28.46,28.46,28.46v-12.65c-8.72,0-15.81-7.09-15.81-15.81Z"/><path class="cls-1" d="m250.02,47.32v12.65c41.28,0,74.85,33.58,74.85,74.85h12.65c0-48.25-39.26-87.5-87.5-87.5Z"/><path class="cls-1" d="m250.02,76.84v12.65c25,0,45.33,20.34,45.33,45.33h12.65c0-31.97-26.01-57.98-57.98-57.98Z"/><path class="cls-1" d="m250.02,106.36v12.65c8.72,0,15.81,7.09,15.81,15.81h12.65c0-15.7-12.77-28.46-28.46-28.46Z"/></svg>