<?xml version="1.0" encoding="UTF-8"?><svg id="Ebene_1" xmlns="http://www.w3.org/2000/svg" viewBox="0 0 400 218.34"><defs><style>.cls-1{fill:#fff;}</style></defs><path class="cls-1" d="m222.74,81.83c-9.77-23.58-9.33-44.73,1.14-55.2L250.51,0h-37.65c-53.79,0-69.35,46.7-80.72,80.79-8.06,24.19-13.63,38.88-22.97,38.88v31.19c32.49,0,43.15-31.98,52.56-60.2,7.19-21.55,13.44-38.17,23.18-48.3-1.53,15.5,1.44,33.11,9.02,51.4,13.42,32.41,39.03,62.55,72.1,84.88,38.46,25.97,84.79,39.69,133.98,39.69v-31.19c-91.81,0-156.25-54.59-177.26-105.32Z"/><path class="cls-1" d="m108.81,26.24h-31.19v16.9C57.82,23.09,30.34,10.64,0,10.64v31.19c40.53,0,73.93,31.09,77.62,70.67v1h.08c.17,2.08.28,4.18.28,6.3h31.19c0-2.82-.14-5.61-.35-8.38V26.24Z"/></svg>